<svg width="1440" height="1024" viewBox="0 0 1440 1024" fill="none" xmlns="http://www.w3.org/2000/svg">
  <rect width="1440" height="1024" fill="url(#paint0_radial)" />
  <g opacity="9.9" stroke="#F4D7BE" stroke-width="1.4">
    <path d="M-150 213C106 68.3088 286 -1.77109 520 2.49737C754 6.76583 854.5 93.9607 1057.5 151.632C1260.5 209.303 1426.5 209.303 1657 138.952C1887.5 68.6013 2148.5 -59.7058 2334 -59.7058" />
    <path d="M-102 479.16C173.333 334.469 363 264.389 604 268.658C845 272.926 950 360.121 1168.5 417.792C1387 475.463 1564 475.463 1815 405.112C2066 334.762 2349 206.454 2550 206.454" />
    <path d="M-137 744.449C147.667 599.758 345.5 529.678 596.5 533.947C847.5 538.215 961 625.41 1192 683.081C1423 740.752 1613 740.752 1879.5 670.401C2146 600.05 2454.5 471.743 2668 471.743" />
    <path d="M-164 1009.74C140.667 865.047 346.5 794.967 612 799.236C877.5 803.504 998 890.699 1249 948.37C1500 1006.04 1709 1006.04 1993 935.691C2277 865.34 2604.5 737.033 2846 737.033" />
  </g>
  <defs>
    <radialGradient id="paint0_radial" cx="0" cy="0" r="1" gradientUnits="userSpaceOnUse" gradientTransform="translate(720 512) rotate(90) scale(512 720)">
      <stop stop-color="#1D130D" />
      <stop offset="1" stop-color="#0D0906" />
    </radialGradient>
  </defs>
</svg>
